<svg width="23.000000" height="22.000000" viewBox="0 0 23 22" fill="none" xmlns="http://www.w3.org/2000/svg" xmlns:xlink="http://www.w3.org/1999/xlink">
	<desc>
			Created with Pixso.
	</desc>
	<defs/>
	<path id="Union" d="M7.88 11.11L10.17 13.4L10.17 -0.06C10.17 -0.52 10.54 -0.89 10.99 -0.89C11.45 -0.89 11.82 -0.52 11.82 -0.06L11.82 13.4L14.11 11.11C14.43 10.78 14.96 10.78 15.28 11.11C15.6 11.43 15.6 11.96 15.28 12.28L11.58 15.98C11.42 16.14 11.21 16.22 10.99 16.22C10.78 16.22 10.56 16.14 10.41 15.98L6.71 12.28C6.39 11.96 6.39 11.43 6.71 11.11C7.03 10.78 7.56 10.78 7.88 11.11ZM7.4 21.78L14.59 21.78L14.59 21.78C20.01 21.78 22.33 19.42 22.33 13.89L22.33 13.75C22.33 8.72 20.37 6.3 15.97 5.92C15.5 5.88 15.11 6.22 15.07 6.68C15.04 7.15 15.37 7.56 15.83 7.6C19.36 7.91 20.67 9.58 20.67 13.75L20.67 13.89C20.67 18.47 19.08 20.09 14.59 20.09L7.4 20.09C2.91 20.09 1.32 18.47 1.32 13.89L1.32 13.75C1.32 9.6 2.6 7.94 6.08 7.61C6.53 7.56 6.86 7.15 6.82 6.69C6.78 6.22 6.38 5.89 5.92 5.92C1.59 6.34 -0.34 8.75 -0.34 13.75L-0.34 13.89C-0.34 19.42 1.97 21.78 7.4 21.78Z" fill="#F5BD02" fill-opacity="1.000000" fill-rule="evenodd"/>
</svg>
