<svg width="250" height="108" viewBox="0 0 250 108" fill="none" xmlns="http://www.w3.org/2000/svg">
<path d="M198.583 107.68H198.726C199.193 107.68 199.572 107.301 199.572 106.834V104.901V103.207V100.426V99.4955H201.745C202.295 99.4955 202.77 99.6781 203.167 100.045C203.351 100.214 203.494 100.412 203.596 100.637C203.698 100.863 203.749 101.099 203.749 101.343C203.749 101.588 203.699 101.824 203.596 102.048C203.495 102.275 203.351 102.478 203.167 102.657C202.77 103.022 202.296 103.207 201.745 103.207H200.949L200.2 104.9H201.438C201.448 104.9 201.458 104.905 201.464 104.913L203.388 107.667C203.393 107.675 203.403 107.68 203.413 107.68H205.586L203.397 104.548C203.723 104.406 204.022 104.225 204.293 104.004C204.562 103.782 204.792 103.536 204.982 103.263C205.17 102.99 205.318 102.691 205.425 102.366C205.532 102.043 205.586 101.701 205.586 101.343C205.586 100.854 205.483 100.396 205.28 99.9668C205.076 99.5393 204.8 99.165 204.454 98.8455C204.106 98.526 203.701 98.2724 203.237 98.0835C202.773 97.895 202.275 97.8011 201.746 97.8011H197.767C197.751 97.8011 197.736 97.8149 197.736 97.8319V100.426V104.901V106.834C197.736 107.301 198.115 107.68 198.583 107.68H198.583Z" fill="#433F3D"/>
<path d="M218.486 107.663L219.295 106.004C219.3 105.994 219.31 105.987 219.322 105.987H223.74L222.923 104.311C222.917 104.3 222.907 104.293 222.895 104.293H220.178C220.155 104.293 220.14 104.27 220.151 104.249L222.274 99.9179C222.286 99.8947 222.318 99.8947 222.33 99.9179L224.475 104.293L225.301 105.987L226.119 107.663C226.124 107.673 226.135 107.68 226.146 107.68H228.147L223.322 97.8181C223.316 97.8079 223.305 97.8011 223.292 97.8011H221.311C221.299 97.8011 221.29 97.8079 221.284 97.8181L216.458 107.68H218.459C218.47 107.68 218.48 107.673 218.486 107.663Z" fill="#433F3D"/>
<path d="M209.067 99.4955H211.341C211.358 99.4955 211.372 99.5093 211.372 99.5263V106.834C211.372 107.301 211.751 107.68 212.218 107.68H212.362C212.829 107.68 213.207 107.301 213.207 106.834V99.5263C213.207 99.5093 213.222 99.4955 213.239 99.4955H215.498C215.965 99.4955 216.345 99.1169 216.345 98.6487V98.6479C216.345 98.1805 215.965 97.8011 215.498 97.8011H213.207H211.372H209.067C208.6 97.8011 208.22 98.1808 208.22 98.6479V98.6487C208.22 99.1172 208.6 99.4955 209.067 99.4955Z" fill="#433F3D"/>
<path d="M186.154 101.414C186.342 101 186.615 100.629 186.972 100.3C187.33 99.971 187.731 99.7185 188.18 99.5435C188.629 99.3708 189.105 99.284 189.604 99.284C190.103 99.284 190.582 99.3708 191.036 99.5435C191.489 99.7185 191.895 99.971 192.251 100.3C192.608 100.629 192.878 101 193.062 101.414C193.247 101.828 193.337 102.266 193.337 102.726C193.337 103.187 193.247 103.628 193.062 104.046C192.878 104.465 192.608 104.838 192.251 105.168C191.895 105.497 191.489 105.746 191.036 105.916C190.582 106.086 190.103 106.17 189.604 106.17C189.105 106.17 188.629 106.086 188.18 105.916C187.731 105.746 187.33 105.497 186.972 105.168C186.615 104.838 186.342 104.465 186.154 104.046C185.965 103.627 185.871 103.187 185.871 102.726C185.871 102.266 185.965 101.828 186.154 101.414ZM184.034 102.726C184.034 103.432 184.18 104.098 184.47 104.723C184.761 105.35 185.16 105.895 185.664 106.36C186.169 106.826 186.76 107.193 187.439 107.462C188.117 107.73 188.838 107.863 189.604 107.863C190.37 107.863 191.091 107.73 191.77 107.462C192.448 107.193 193.04 106.825 193.545 106.36C194.05 105.895 194.448 105.35 194.739 104.723C195.028 104.098 195.174 103.432 195.174 102.726C195.174 102.021 195.028 101.356 194.739 100.729C194.448 100.104 194.05 99.5582 193.545 99.092C193.04 98.6255 192.448 98.2602 191.77 97.9916C191.091 97.723 190.37 97.589 189.604 97.589C188.838 97.589 188.117 97.723 187.439 97.9916C186.76 98.2602 186.169 98.6258 185.664 99.092C185.16 99.5582 184.761 100.103 184.47 100.729C184.18 101.356 184.034 102.021 184.034 102.726Z" fill="#433F3D"/>
<path d="M174.618 107.681H174.762C175.228 107.681 175.608 107.301 175.608 106.834V99.5256C175.608 99.5089 175.622 99.4959 175.638 99.4959H177.764C178.316 99.4959 178.791 99.6785 179.188 100.046C179.587 100.394 179.785 100.827 179.785 101.343C179.785 101.852 179.587 102.29 179.188 102.657C178.791 103.022 178.317 103.207 177.764 103.207H176.984L176.236 104.901H177.764C178.295 104.901 178.796 104.806 179.264 104.618C179.734 104.43 180.142 104.176 180.489 103.855C180.836 103.537 181.111 103.159 181.315 102.727C181.519 102.295 181.621 101.833 181.621 101.343C181.621 100.855 181.519 100.396 181.315 99.9672C181.111 99.5397 180.836 99.1654 180.489 98.8459C180.142 98.5264 179.734 98.2728 179.264 98.084C178.796 97.8954 178.295 97.8015 177.764 97.8015H173.803C173.785 97.8015 173.771 97.8154 173.771 97.8323V106.834C173.771 107.301 174.151 107.681 174.618 107.681L174.618 107.681Z" fill="#433F3D"/>
<path d="M232.523 107.68H235.884C236.352 107.68 236.731 107.3 236.731 106.833C236.731 106.366 236.352 105.987 235.884 105.987H232.554C232.537 105.987 232.523 105.974 232.523 105.956V98.6624C232.523 98.1942 232.143 97.8159 231.676 97.8159H231.534C231.066 97.8159 230.687 98.1945 230.687 98.6624V105.987V107.649C230.687 107.666 230.701 107.68 230.718 107.68H232.523V107.68Z" fill="#433F3D"/>
<path d="M243.729 16.809H228.403C226.448 16.809 224.791 18.3317 224.52 20.3801L215.766 86.4324C215.423 89.0247 217.327 91.3408 219.802 91.3408H235.129C237.084 91.3408 238.74 89.8181 239.011 87.7697L247.765 21.7181C248.109 19.1251 246.205 16.809 243.729 16.809Z" fill="#433F3D"/>
<path d="M69.5482 16.8112H14.937C12.9827 16.8112 11.3271 18.3331 11.0545 20.3799L0.0388776 103.205C-0.292704 105.701 1.53895 107.929 3.92135 107.929H19.5264C21.4807 107.929 23.1369 106.407 23.4089 104.359L33.4592 28.6745C33.7302 26.626 35.3874 25.1041 37.3417 25.1041H45.0009C47.384 25.1041 49.2159 27.3348 48.8827 29.8311L42.2508 79.4826C41.9772 81.5284 40.3226 83.0487 38.3683 83.0487H33.5027C31.3378 83.0487 29.5822 84.9058 29.5822 87.1957C29.5822 89.4766 31.3459 91.342 33.5027 91.342H60.7687C62.724 91.342 64.381 89.8194 64.6512 87.7716L73.4307 21.533C73.7615 19.0379 71.9296 16.811 69.5482 16.811V16.8112Z" fill="#433F3D"/>
<path d="M211.867 16.8107H157.256C155.302 16.8107 153.646 18.3327 153.374 20.3802L150.853 39.3364C160.023 41.884 166.466 49.3623 168.077 58.0726L153.202 53.3767C153.074 53.3363 152.966 53.2498 152.899 53.1357L146.454 42.1177C146.29 41.8348 145.909 41.7633 145.651 41.9675L122.812 60.0364C122.713 60.1144 122.643 60.2251 122.617 60.3476C122.536 60.7262 122.463 61.1084 122.398 61.4918C122.316 61.9827 122.898 62.3102 123.283 61.9903L143.98 44.7406C144.358 44.4262 144.931 44.7373 144.863 45.2224C144.676 46.5471 144.414 48.4075 144.357 48.8147C144.278 49.3863 143.266 52.7728 143.028 53.5695C142.994 53.6796 142.927 53.7734 142.834 53.8431L141.011 55.1913C140.564 55.5229 140.856 56.2222 141.41 56.1499C142.018 56.0719 142.523 56.0871 142.613 56.3296C142.863 57.002 141.945 61.0837 141.763 62.3808C141.58 63.6769 138.656 66.0895 138.656 66.0895L132.351 71.3934C131.884 71.7854 132.332 72.5158 132.903 72.2957C133.373 72.1143 133.717 72.0549 133.851 72.0801C135.73 72.4376 134.239 72.1547 136.919 72.667C137.328 72.7456 137.499 73.237 137.222 73.5474L132.77 78.5508L130.068 81.6577C122.224 75.9417 118.346 65.8169 121.109 55.9638C123.889 46.0439 132.579 39.3312 142.351 38.5254L144.611 21.5354C144.943 19.0405 143.112 16.8117 140.729 16.8117H86.1164C84.1638 16.8117 82.5083 18.332 82.2347 20.3771L73.3656 86.615C73.0307 89.1115 74.8633 91.3428 77.2474 91.3428H104.45C106.245 91.3428 107.89 90.1205 108.351 88.2872C109.027 85.5941 107.112 83.0496 104.567 83.0496H101.881C99.5009 83.0496 97.669 80.8248 97.9973 78.331L104.543 28.6795C104.813 26.6296 106.469 25.105 108.425 25.105H116.188C118.569 25.105 120.401 27.3322 120.07 29.8271L111.291 96.0657C111.02 98.1134 109.364 99.6361 107.409 99.6361H75.1536C72.9877 99.6361 71.233 101.493 71.233 103.783C71.233 106.063 72.9967 107.93 75.1536 107.93H129.713C131.667 107.93 133.324 106.407 133.595 104.361L136.188 84.8825L161.758 61.6886C161.937 61.5265 162.203 61.5023 162.408 61.6309L165.681 63.6641C165.884 63.7893 165.978 64.0335 165.914 64.2619L163.375 73.2122C163.323 73.3929 163.371 73.5882 163.502 73.7252L164.788 75.0748C160.444 81.9593 152.801 86.1979 144.609 86.2851L142.358 103.205C142.027 105.701 143.858 107.929 146.241 107.929H161.845C163.8 107.929 165.456 106.407 165.728 104.359L175.779 28.6742C176.05 26.6268 177.706 25.1041 179.661 25.1041H187.32C189.703 25.1041 191.535 27.3346 191.202 29.8311L184.57 79.4826C184.297 81.5284 182.642 83.0494 180.688 83.0494L175.824 83.0503C173.659 83.0503 171.904 84.9065 171.904 87.1974C171.904 89.4783 173.668 91.3437 175.824 91.3437H180.689V91.3428H203.088C205.043 91.3428 206.7 89.8201 206.971 87.7716L215.75 21.533C216.081 19.0379 214.249 16.811 211.867 16.811V16.8107Z" fill="#433F3D"/>
<path d="M246.969 0.000656128L229.834 0.00564675C228.333 0.00564675 227.058 1.16844 226.837 2.73912L226.639 4.61285C226.367 6.551 227.785 8.29211 229.637 8.29211L246.798 8.28616C248.309 8.28616 249.589 7.10911 249.799 5.52607L249.97 3.65138C250.226 1.72321 248.81 0.000656128 246.969 0.000656128Z" fill="#433F3D"/>
<path d="M16.1767 8.29644L214.895 8.28574C216.407 8.28574 217.687 7.10869 217.897 5.52541L218.068 3.65096C218.324 1.72255 216.909 0 215.067 0L16.3726 0.010933C14.8715 0.010933 13.5965 1.17373 13.3748 2.74345L13.1792 4.61814C12.9065 6.55558 14.3251 8.29644 16.1769 8.29644H16.1767Z" fill="#433F3D"/>
</svg>
