<svg width="595" height="257" viewBox="0 0 595 257" fill="none" xmlns="http://www.w3.org/2000/svg">
<path d="M472.441 256.399H472.781C473.893 256.399 474.795 255.495 474.795 254.384V249.785V245.756V239.14V236.926H479.965C481.274 236.926 482.402 237.361 483.348 238.234C483.785 238.637 484.127 239.106 484.369 239.643C484.612 240.18 484.733 240.741 484.733 241.32C484.733 241.905 484.612 242.465 484.369 243C484.127 243.539 483.785 244.022 483.348 244.447C482.402 245.316 481.275 245.755 479.965 245.755H478.072L476.288 249.785H479.233C479.257 249.785 479.281 249.796 479.295 249.815L483.873 256.367C483.885 256.386 483.909 256.398 483.932 256.398H489.102L483.895 248.946C484.671 248.608 485.381 248.179 486.025 247.652C486.667 247.124 487.213 246.54 487.665 245.889C488.114 245.24 488.465 244.528 488.72 243.755C488.974 242.986 489.103 242.173 489.103 241.32C489.103 240.159 488.858 239.068 488.376 238.047C487.889 237.03 487.233 236.14 486.409 235.38C485.582 234.62 484.618 234.016 483.515 233.567C482.411 233.118 481.226 232.895 479.966 232.895H470.502C470.462 232.895 470.426 232.928 470.426 232.968V239.14V249.785V254.384C470.426 255.496 471.329 256.399 472.442 256.399H472.441Z" fill="white"/>
<path d="M519.792 256.358L521.719 252.409C521.73 252.386 521.754 252.369 521.782 252.369H532.292L530.349 248.383C530.335 248.357 530.311 248.34 530.282 248.34H523.819C523.764 248.34 523.728 248.285 523.755 248.236L528.805 237.931C528.833 237.876 528.909 237.876 528.938 237.931L534.04 248.34L536.005 252.369L537.953 256.358C537.964 256.382 537.991 256.399 538.017 256.399H542.778L531.297 232.935C531.283 232.911 531.256 232.895 531.227 232.895H526.514C526.486 232.895 526.463 232.911 526.448 232.935L514.967 256.399H519.728C519.754 256.399 519.778 256.382 519.792 256.358Z" fill="white"/>
<path d="M497.384 236.926H502.795C502.835 236.926 502.868 236.959 502.868 236.999V254.384C502.868 255.496 503.769 256.398 504.88 256.398H505.222C506.334 256.398 507.234 255.495 507.234 254.384V236.999C507.234 236.959 507.268 236.926 507.31 236.926H512.684C513.796 236.926 514.698 236.025 514.698 234.912V234.91C514.698 233.798 513.795 232.895 512.684 232.895H507.234H502.868H497.384C496.272 232.895 495.369 233.798 495.369 234.91V234.912C495.369 236.026 496.272 236.926 497.384 236.926Z" fill="white"/>
<path d="M442.873 241.49C443.32 240.506 443.97 239.622 444.818 238.839C445.67 238.057 446.625 237.457 447.692 237.04C448.762 236.629 449.892 236.423 451.08 236.423C452.268 236.423 453.406 236.629 454.487 237.04C455.565 237.457 456.53 238.057 457.378 238.839C458.226 239.622 458.87 240.506 459.307 241.49C459.747 242.476 459.962 243.518 459.962 244.611C459.962 245.708 459.747 246.756 459.307 247.751C458.87 248.749 458.226 249.637 457.378 250.421C456.531 251.204 455.565 251.796 454.487 252.201C453.406 252.604 452.268 252.804 451.08 252.804C449.892 252.804 448.762 252.604 447.692 252.201C446.625 251.796 445.671 251.204 444.818 250.421C443.97 249.637 443.319 248.749 442.873 247.751C442.424 246.756 442.198 245.708 442.198 244.611C442.198 243.518 442.424 242.475 442.873 241.49ZM437.83 244.611C437.83 246.291 438.177 247.875 438.865 249.362C439.559 250.853 440.507 252.151 441.707 253.258C442.909 254.365 444.315 255.239 445.931 255.878C447.544 256.517 449.259 256.834 451.081 256.834C452.903 256.834 454.618 256.517 456.234 255.878C457.847 255.239 459.255 254.364 460.455 253.258C461.657 252.151 462.605 250.854 463.297 249.362C463.985 247.876 464.332 246.291 464.332 244.611C464.332 242.934 463.985 241.352 463.297 239.86C462.605 238.373 461.657 237.075 460.455 235.966C459.255 234.856 457.847 233.987 456.234 233.348C454.618 232.709 452.903 232.39 451.081 232.39C449.259 232.39 447.544 232.709 445.931 233.348C444.315 233.987 442.909 234.857 441.707 235.966C440.507 237.075 439.559 238.372 438.865 239.86C438.177 241.351 437.83 242.934 437.83 244.611Z" fill="white"/>
<path d="M415.428 256.399H415.77C416.879 256.399 417.782 255.496 417.782 254.385V236.998C417.782 236.958 417.815 236.927 417.855 236.927H422.913C424.226 236.927 425.354 237.362 426.3 238.236C427.249 239.065 427.721 240.093 427.721 241.322C427.721 242.533 427.248 243.574 426.3 244.448C425.354 245.317 424.226 245.756 422.913 245.756H421.057L419.276 249.786H422.913C424.176 249.786 425.367 249.56 426.48 249.113C427.6 248.667 428.568 248.061 429.396 247.299C430.22 246.541 430.875 245.643 431.36 244.615C431.845 243.586 432.089 242.488 432.089 241.322C432.089 240.16 431.845 239.07 431.36 238.049C430.875 237.032 430.22 236.141 429.396 235.381C428.569 234.621 427.6 234.018 426.48 233.568C425.367 233.12 424.176 232.896 422.913 232.896H413.489C413.446 232.896 413.413 232.929 413.413 232.97V254.385C413.413 255.497 414.316 256.4 415.427 256.4L415.428 256.399Z" fill="white"/>
<path d="M553.188 256.398H561.183C562.298 256.398 563.2 255.495 563.2 254.383C563.2 253.272 562.297 252.37 561.183 252.37H553.261C553.221 252.37 553.188 252.339 553.188 252.296V234.945C553.188 233.831 552.284 232.931 551.173 232.931H550.836C549.722 232.931 548.819 233.831 548.819 234.945V252.37V256.325C548.819 256.365 548.853 256.399 548.893 256.399H553.188V256.398Z" fill="white"/>
<path d="M579.847 40.2097H543.385C538.735 40.2097 534.793 43.8322 534.148 48.7056L513.32 205.848C512.505 212.015 517.034 217.526 522.922 217.526H559.386C564.038 217.526 567.978 213.903 568.623 209.03L589.449 51.8887C590.268 45.7198 585.737 40.2097 579.847 40.2097Z" fill="white"/>
<path d="M165.46 40.2152H35.5361C30.8867 40.2152 26.948 43.836 26.2994 48.7054L0.0924923 245.751C-0.696362 251.689 3.66127 256.991 9.32915 256.991H46.4545C51.1039 256.991 55.0443 253.368 55.6912 248.497L79.6017 68.4386C80.2464 63.5653 84.1889 59.9444 88.8384 59.9444H107.06C112.73 59.9444 117.088 65.2515 116.295 71.1903L100.517 189.314C99.8665 194.182 95.9301 197.798 91.2807 197.798H79.7051C74.5547 197.798 70.378 202.217 70.378 207.664C70.378 213.091 74.5739 217.529 79.7051 217.529H144.573C149.224 217.529 153.166 213.906 153.809 209.035L174.696 51.4486C175.483 45.5126 171.125 40.2146 165.46 40.2146V40.2152Z" fill="white"/>
<path d="M504.047 40.2139H374.123C369.474 40.2139 365.535 43.8347 364.887 48.7058L358.889 93.8039C380.706 99.8648 396.034 117.656 399.867 138.378L364.478 127.207C364.174 127.111 363.916 126.905 363.757 126.633L348.424 100.421C348.033 99.7478 347.128 99.5776 346.513 100.063L292.178 143.051C291.943 143.236 291.776 143.5 291.715 143.791C291.521 144.692 291.347 145.601 291.193 146.513C290.998 147.681 292.384 148.46 293.299 147.699L342.539 106.661C343.437 105.913 344.799 106.653 344.638 107.807C344.194 110.959 343.571 115.385 343.435 116.353C343.246 117.713 340.839 125.77 340.272 127.665C340.192 127.927 340.033 128.151 339.811 128.316L335.474 131.524C334.41 132.313 335.105 133.976 336.423 133.804C337.869 133.619 339.072 133.655 339.285 134.232C339.881 135.832 337.696 145.542 337.263 148.628C336.829 151.712 329.873 157.451 329.873 157.451L314.872 170.07C313.761 171.002 314.826 172.74 316.186 172.216C317.303 171.785 318.121 171.643 318.441 171.703C322.91 172.554 319.364 171.881 325.738 173.099C326.713 173.287 327.119 174.455 326.461 175.194L315.868 187.097L309.439 194.489C290.78 180.89 281.553 156.803 288.126 133.361C294.741 109.761 315.413 93.7915 338.663 91.8745L344.039 51.4541C344.828 45.5187 340.472 40.2161 334.804 40.2161H204.877C200.231 40.2161 196.293 43.833 195.642 48.6984L174.542 206.283C173.745 212.222 178.105 217.53 183.777 217.53H248.495C252.765 217.53 256.677 214.623 257.774 210.261C259.383 203.854 254.826 197.8 248.772 197.8H242.381C236.719 197.8 232.361 192.508 233.142 186.574L248.715 68.4503C249.357 63.5736 253.298 59.9465 257.951 59.9465H276.419C282.085 59.9465 286.443 65.2452 285.656 71.1805L264.769 228.766C264.124 233.638 260.184 237.261 255.532 237.261H178.795C173.643 237.261 169.468 241.678 169.468 247.127C169.468 252.551 173.664 256.993 178.795 256.993H308.595C313.245 256.993 317.187 253.37 317.832 248.501L324.001 202.161L384.834 146.981C385.258 146.596 385.893 146.538 386.38 146.844L394.165 151.681C394.649 151.979 394.874 152.56 394.721 153.103L388.679 174.397C388.557 174.826 388.671 175.291 388.983 175.617L392.042 178.828C381.707 195.207 363.525 205.29 344.034 205.498L338.68 245.75C337.891 251.689 342.247 256.991 347.916 256.991H385.04C389.691 256.991 393.631 253.37 394.278 248.496L418.189 68.4379C418.834 63.5668 422.774 59.9443 427.426 59.9443H445.647C451.317 59.9443 455.675 65.2508 454.882 71.1901L439.105 189.314C438.454 194.181 434.517 197.8 429.868 197.8L418.296 197.802C413.146 197.802 408.971 202.218 408.971 207.668C408.971 213.095 413.167 217.533 418.296 217.533H429.872V217.53H483.16C487.812 217.53 491.752 213.908 492.397 209.034L513.283 51.4484C514.071 45.5125 509.712 40.2144 504.047 40.2144V40.2139Z" fill="white"/>
<path d="M587.555 0.22168L546.79 0.233553C543.219 0.233553 540.185 2.99992 539.659 6.73666L539.19 11.1944C538.541 15.8054 541.916 19.9476 546.322 19.9476L587.148 19.9334C590.743 19.9334 593.788 17.1331 594.288 13.367L594.695 8.90699C595.304 4.31976 591.935 0.22168 587.555 0.22168Z" fill="white"/>
<path d="M38.4855 19.958L511.25 19.9325C514.847 19.9325 517.893 17.1322 518.392 13.3655L518.799 8.90608C519.408 4.31828 516.039 0.220215 511.658 0.220215L38.9515 0.246225C35.3804 0.246225 32.3471 3.01259 31.8195 6.74706L31.3542 11.2071C30.7056 15.8164 34.0804 19.958 38.4861 19.958H38.4855Z" fill="white"/>
</svg>
